<svg width="146" height="32" viewBox="0 0 146 32" fill="none" xmlns="http://www.w3.org/2000/svg">
<g clip-path="url(#clip0_48_11485)">
<path d="M51.405 17.9132L50.5371 20.3724H50.4648C50.3201 19.8179 50.0549 18.9741 49.6209 17.9615L44.9678 6.2684H40.4111V24.905H43.4248V13.4048C43.4248 12.6815 43.4248 11.8618 43.4007 10.8492C43.3766 10.3429 43.3284 9.95714 43.3043 9.66783H43.3766C43.5212 10.3911 43.69 10.9215 43.8106 11.259L49.4039 24.8568H51.5256L57.0707 11.1385C57.1913 10.8251 57.3118 10.1982 57.4324 9.66783H57.5047C57.4324 11.0421 57.3842 12.2716 57.36 13.019V24.8326H60.5666V6.22018H56.1787L51.405 17.9132ZM63.6044 11.476H66.7386V24.8326H63.6044V11.476ZM65.1956 5.83443C64.6652 5.83443 64.2312 6.02731 63.8696 6.36484C63.5079 6.70237 63.3151 7.13634 63.3151 7.66675C63.3151 8.17304 63.5079 8.60701 63.8696 8.94455C64.2312 9.28208 64.6652 9.45084 65.1956 9.45084C65.726 9.45084 66.1841 9.25797 66.5216 8.94455C66.8833 8.60701 67.0761 8.17304 67.0761 7.66675C67.0761 7.16045 66.8833 6.72648 66.5216 6.36484C66.2082 6.02731 65.7501 5.83443 65.1956 5.83443ZM77.853 11.3555C77.2744 11.2349 76.6717 11.1626 76.0931 11.1626C74.6706 11.1626 73.3687 11.476 72.2838 12.1029C71.1988 12.7297 70.3309 13.5977 69.7764 14.6826C69.1978 15.7916 68.9084 17.0694 68.9084 18.5401C68.9084 19.8179 69.1978 20.951 69.7523 21.9877C70.3068 23.0003 71.0783 23.82 72.115 24.3746C73.1035 24.9291 74.2607 25.2184 75.5626 25.2184C77.0574 25.2184 78.3352 24.905 79.3478 24.3263L79.3719 24.3022V21.4091L79.2514 21.5055C78.7933 21.8431 78.2629 22.1324 77.7325 22.3012C77.178 22.494 76.6717 22.5905 76.2377 22.5905C74.984 22.5905 73.9955 22.2288 73.2964 21.4332C72.5731 20.6617 72.2114 19.6009 72.2114 18.2749C72.2114 16.9007 72.5731 15.8157 73.3205 15.0201C74.0679 14.2245 75.0563 13.8146 76.2618 13.8146C77.2744 13.8146 78.3111 14.1522 79.2514 14.8272L79.3719 14.9237V11.8618L79.3478 11.8377C78.938 11.6689 78.4799 11.476 77.853 11.3555ZM88.196 11.259C87.4245 11.259 86.7012 11.5001 86.0743 12.0064C85.5439 12.4404 85.1823 13.0673 84.8689 13.8146H84.8448V11.476H81.7105V24.8326H84.8448V18.0097C84.8448 16.8524 85.0859 15.8881 85.6163 15.1889C86.1467 14.4656 86.8217 14.104 87.6415 14.104C87.9308 14.104 88.2201 14.1763 88.5817 14.2245C88.9193 14.3209 89.1603 14.4174 89.3291 14.5379L89.4497 14.6344V11.5001L89.3773 11.476C89.1604 11.3314 88.7264 11.259 88.196 11.259ZM96.7307 11.1867C94.5368 11.1867 92.7768 11.8377 91.5472 13.1155C90.2935 14.3933 89.6908 16.1533 89.6908 18.3713C89.6908 20.4447 90.3176 22.1324 91.5231 23.362C92.7285 24.5674 94.368 25.1943 96.4173 25.1943C98.563 25.1943 100.275 24.5433 101.504 23.2414C102.758 21.9395 103.361 20.2036 103.361 18.0579C103.361 15.9363 102.782 14.2486 101.601 13.019C100.468 11.7895 98.8041 11.1867 96.7307 11.1867ZM99.2381 21.4573C98.6595 22.2047 97.7433 22.5664 96.6102 22.5664C95.477 22.5664 94.5609 22.2047 93.9099 21.4091C93.2589 20.6617 92.9455 19.5768 92.9455 18.2026C92.9455 16.7801 93.2831 15.6952 93.9099 14.9237C94.5609 14.1522 95.4529 13.7664 96.586 13.7664C97.6951 13.7664 98.563 14.1281 99.1899 14.8755C99.8167 15.6229 100.154 16.7078 100.154 18.1302C100.106 19.5768 99.8408 20.7099 99.2381 21.4573ZM110.353 17.0212C109.364 16.6113 108.737 16.2979 108.448 16.0327C108.207 15.7916 108.086 15.4541 108.086 15.0201C108.086 14.6585 108.231 14.2968 108.593 14.0557C108.954 13.8146 109.364 13.6941 109.967 13.6941C110.497 13.6941 111.052 13.7905 111.582 13.9352C112.113 14.0798 112.595 14.2968 112.98 14.5861L113.101 14.6826V11.7412L113.029 11.7171C112.667 11.5725 112.185 11.4278 111.606 11.3073C111.028 11.2108 110.497 11.1626 110.063 11.1626C108.568 11.1626 107.339 11.5243 106.374 12.3199C105.41 13.0673 104.952 14.0798 104.952 15.2612C104.952 15.8881 105.048 16.4426 105.265 16.9006C105.482 17.3587 105.796 17.7927 106.23 18.1543C106.664 18.4919 107.291 18.8776 108.159 19.2393C108.882 19.5527 109.436 19.7938 109.774 19.9867C110.111 20.1795 110.328 20.3965 110.497 20.5653C110.618 20.7582 110.69 20.9992 110.69 21.3127C110.69 22.2047 110.015 22.6387 108.641 22.6387C108.11 22.6387 107.556 22.5422 106.905 22.3253C106.254 22.1083 105.651 21.7949 105.145 21.4332L105.024 21.3368V24.3987L105.097 24.4228C105.555 24.6398 106.109 24.7844 106.784 24.9532C107.459 25.0737 108.062 25.1702 108.593 25.1702C110.208 25.1702 111.534 24.8085 112.474 24.0129C113.439 23.2414 113.945 22.2529 113.945 20.9751C113.945 20.0831 113.704 19.2875 113.173 18.6847C112.474 18.1061 111.606 17.5034 110.353 17.0212ZM122.214 11.1867C120.02 11.1867 118.26 11.8377 117.031 13.1155C115.801 14.3933 115.174 16.1533 115.174 18.3713C115.174 20.4447 115.801 22.1324 117.007 23.362C118.212 24.5674 119.852 25.1943 121.901 25.1943C124.047 25.1943 125.758 24.5433 126.988 23.2414C128.242 21.9395 128.844 20.2036 128.844 18.0579C128.844 15.9363 128.266 14.2486 127.084 13.019C125.951 11.7895 124.288 11.1867 122.214 11.1867ZM124.698 21.4573C124.119 22.2047 123.203 22.5664 122.07 22.5664C120.912 22.5664 120.02 22.2047 119.369 21.4091C118.718 20.6617 118.405 19.5768 118.405 18.2026C118.405 16.7801 118.743 15.6952 119.369 14.9237C120.02 14.1522 120.912 13.7664 122.046 13.7664C123.131 13.7664 124.023 14.1281 124.649 14.8755C125.276 15.6229 125.614 16.7078 125.614 18.1302C125.614 19.5768 125.3 20.7099 124.698 21.4573ZM145.6 14.0557V11.476H142.442V7.52209L142.346 7.5462L139.356 8.43825L139.284 8.46236V11.476H134.558V9.78837C134.558 9.01687 134.751 8.41414 135.089 8.02839C135.426 7.64264 135.933 7.44976 136.559 7.44976C136.993 7.44976 137.451 7.5462 137.958 7.76319L138.078 7.83551V5.11115L138.006 5.08704C137.572 4.94238 136.993 4.84595 136.246 4.84595C135.306 4.84595 134.486 5.06293 133.739 5.42457C132.991 5.83443 132.437 6.38895 132.027 7.13634C131.617 7.85962 131.4 8.67934 131.4 9.61961V11.476H129.206V14.0316H131.4V24.8326H134.558V14.0557H139.284V20.9269C139.284 23.7477 140.61 25.1702 143.262 25.1702C143.696 25.1702 144.154 25.0978 144.588 25.0255C145.046 24.9291 145.383 24.8085 145.576 24.7121L145.6 24.688V22.1083L145.48 22.2047C145.287 22.3253 145.118 22.4217 144.829 22.494C144.588 22.5664 144.371 22.5905 144.202 22.5905C143.575 22.5905 143.141 22.4458 142.828 22.0842C142.539 21.7466 142.394 21.1921 142.394 20.3724V14.0557H145.6Z" fill="white"/>
<path d="M0.00390625 0H14.783V14.7791H0.00390625V0Z" fill="white"/>
<path d="M16.3262 0H31.1052V14.7791H16.3262V0Z" fill="white"/>
<path d="M0.00390625 16.322H14.783V31.1011H0.00390625V16.322Z" fill="white"/>
<path d="M16.3262 16.322H31.1052V31.1011H16.3262V16.322Z" fill="white"/>
</g>
<defs>
<clipPath id="clip0_48_11485">
<rect width="145.605" height="31.1011" fill="white"/>
</clipPath>
</defs>
</svg>
