<svg width="114" height="44" viewBox="0 0 114 44" fill="none" xmlns="http://www.w3.org/2000/svg">
<path fill-rule="evenodd" clip-rule="evenodd" d="M21.5938 0H15.9245V10.8394H10.7365C4.82566 10.8394 0 15.7659 0 21.8013C0 27.9618 4.82566 32.8874 10.7365 32.8874C12.164 32.8936 13.5786 32.6111 14.8986 32.0562C16.2186 31.5012 17.418 30.6849 18.4274 29.6542C19.4368 28.6235 20.2363 27.3989 20.7798 26.0511C21.3232 24.7033 21.5999 23.2589 21.5938 21.8013C21.5938 18.8461 21.7146 10.8394 21.7146 10.8394L21.5938 0ZM15.9245 21.8013C15.9245 24.7574 13.6324 27.0986 10.7365 27.0986C7.96225 27.0986 5.67019 24.7582 5.67019 21.8013C5.67019 18.9686 7.96225 16.6282 10.7365 16.6282H15.9245V21.8013ZM68.3995 21.8013C68.3995 15.7659 73.2243 10.8394 79.2568 10.8394C85.1668 10.8394 89.9925 15.7659 89.9925 21.8013C89.9925 27.9618 85.1668 32.8874 79.2568 32.8874C77.8293 32.8936 76.4147 32.6111 75.0947 32.0562C73.7747 31.5012 72.5754 30.6849 71.566 29.6542C70.5566 28.6235 69.7571 27.3989 69.2136 26.0511C68.6701 24.7033 68.3934 23.2589 68.3995 21.8013ZM79.136 27.0986C82.0311 27.0986 84.324 24.7582 84.324 21.8013C84.324 18.9686 82.0319 16.6282 79.136 16.6282C76.3617 16.6282 74.0688 18.9686 74.0688 21.8013C74.0688 24.7582 76.3617 27.0986 79.136 27.0986ZM108.209 21.8013C108.209 18.9686 105.917 16.6282 103.143 16.6282C100.248 16.6282 97.9547 18.9686 97.9547 21.8013V32.395C95.0597 32.5192 92.2854 32.5192 92.2854 32.5192V21.8013C92.2854 15.7659 97.111 10.8394 103.143 10.8394C109.053 10.8394 114 15.7659 114 21.8013V32.395H108.209V21.8013ZM55.0094 17.9838C54.2857 17.4914 54.5272 16.3825 55.854 16.0134C57.663 15.5201 60.5589 16.0134 63.0916 17.1215L65.8667 13.4264C64.6608 12.4416 62.1272 11.0861 58.3876 10.8394C58.3876 10.8394 52.2352 10.1004 49.7016 14.9044C49.7016 14.9044 47.4095 19.4618 51.8728 22.1713C54.5272 23.8959 59.1105 24.5116 60.558 25.3739C61.764 25.9914 61.4025 27.3452 59.5927 27.7143C56.6977 28.4542 52.7165 26.7287 51.3898 25.743L48.6155 29.5623C50.4245 30.9161 52.8373 32.1492 56.5769 32.8865C56.5769 32.8865 62.367 33.8722 65.6244 29.808C66.2273 28.9448 68.8817 23.8951 63.573 21.0632C60.9203 19.5852 56.457 18.9695 55.0094 17.9838ZM28.47 36.7066C28.7116 36.9524 31.3651 38.7995 33.8987 38.7995C40.1719 38.9237 40.5333 32.395 40.5333 30.7937C39.3273 32.1493 36.9145 32.8865 35.467 32.8865C29.4353 32.8865 24.6097 28.0834 24.6097 22.0488V11.2085H30.2799C30.2799 11.2085 30.4006 20.6932 30.4006 22.0488C30.4006 24.8816 32.6927 27.2219 35.4678 27.2219C38.2421 27.2219 40.5342 24.8816 40.5342 22.0488V11.2085H46.3243V22.0488C46.3243 31.5336 46.6866 41.3865 37.6391 43.6027C30.7629 45.3273 25.9373 40.8941 25.6966 40.6483L28.47 36.7066Z" fill="white"/>
</svg>
