<svg width="161" height="36" viewBox="0 0 161 36" fill="none" xmlns="http://www.w3.org/2000/svg">
<path d="M87.5578 11.6228H91.1574V21.6358C91.1574 26.7183 88.3563 29.6335 83.4765 29.6335C78.6475 29.6335 75.8717 26.769 75.8717 21.7752V11.6355H79.4713V21.6611C79.4713 24.627 80.9289 26.2114 83.5272 26.2114C86.1255 26.2114 87.5578 24.665 87.5578 21.7879V11.6228ZM67.2783 18.7713H59.1411V11.6228H55.5415V29.3673H59.1411V22.1555H67.2656V29.3673H70.8652V11.6228H67.2656V18.7713H67.2783ZM157.421 11.6228V29.342H160.97V11.6228H157.421ZM143.288 21.7245H149.841V18.4925H143.288V14.8548H152.794V11.6355H139.739V29.3547H153.137V26.1226H143.288V21.7245ZM129.169 23.8158L125.138 11.6101H122.198L118.167 23.8158L114.251 11.6228H110.423L116.608 29.3547H119.587L123.617 17.7066L127.648 29.3547H130.652L136.824 11.6228H133.085L129.169 23.8158ZM104.022 11.7242L111.766 29.3547H107.989L106.392 25.6663H98.2679L98.1538 25.9198L96.6582 29.3547H92.9825L100.803 11.6228H103.946L104.022 11.7242ZM104.884 22.0414L102.324 16.0969L99.7762 22.0414L99.5987 22.447H105.049L104.884 22.0414Z" fill="white"/>
<path d="M20.1026 27.4787C20.1533 27.4407 20.166 27.3647 20.1406 27.3013C16.6457 19.7894 12.2856 12.7113 7.14907 6.2106C7.14907 6.2106 3.06782 10.0891 3.35933 13.9802C3.42762 14.8773 3.67211 15.7521 4.0788 16.5546C4.4855 17.3571 5.04643 18.0716 5.7295 18.6571C9.29109 22.13 17.9099 26.5155 19.9125 27.5168C19.9759 27.5421 20.0519 27.5294 20.1026 27.4787ZM18.7718 30.4446C18.7464 30.3686 18.6704 30.3179 18.5816 30.3179L4.23389 30.8122C5.79287 33.5879 8.41654 35.7426 11.1416 35.0835C13.0301 34.6146 17.2888 31.636 18.6957 30.6221C18.8098 30.5333 18.7718 30.4573 18.7718 30.4446ZM18.9872 29.1645C19.0633 29.0504 18.9365 28.949 18.9365 28.949C12.6372 24.6903 0.418807 18.1502 0.418807 18.1502C0.0138241 19.3915 -0.0994676 20.7094 0.0877374 22.0016C0.274942 23.2939 0.757601 24.5255 1.4982 25.6008C2.2388 26.6762 3.2174 27.5663 4.35793 28.2019C5.49846 28.8376 6.7702 29.2016 8.07432 29.2659C8.28979 29.3039 16.6044 29.2659 18.8351 29.2532C18.8985 29.2405 18.9492 29.2152 18.9872 29.1645ZM19.9378 0.0126747C19.3168 0.0633735 17.631 0.456289 17.631 0.456289C13.8286 1.43224 12.9287 4.89243 12.9287 4.89243C12.2316 7.0598 12.9414 9.45532 12.9414 9.45532C14.2089 15.0829 20.4448 24.3481 21.7883 26.2873C21.8771 26.3887 21.9531 26.3507 21.9531 26.3507C22.0292 26.3253 22.0925 26.262 22.0925 26.1732C24.1712 5.48814 19.9378 0.0126747 19.9378 0.0126747ZM24.6908 26.3253C24.7669 26.3507 24.8556 26.3253 24.8936 26.2493C26.2752 24.2594 32.4731 15.0449 33.7406 9.44265C33.7406 9.44265 34.425 6.73026 33.7659 4.87976C33.7659 4.87976 32.828 1.36887 29.0256 0.443614C29.0256 0.443614 27.9356 0.164771 26.7695 0C26.7695 0 22.5108 5.47547 24.5894 26.1606C24.5768 26.2366 24.6275 26.3 24.6908 26.3253ZM28.0877 30.3305C28.0539 30.3374 28.0218 30.351 27.9935 30.3706C27.9652 30.3902 27.9411 30.4154 27.9229 30.4446C27.9102 30.5207 27.9229 30.584 27.9736 30.6347C29.3424 31.6234 33.5124 34.5385 35.515 35.0962C35.515 35.0962 39.2287 36.3637 42.4481 30.8249L28.0877 30.3305ZM46.2758 18.1248C46.2758 18.1248 34.0828 24.6776 27.7708 28.9363C27.7074 28.987 27.6694 29.0631 27.6947 29.1391C27.6947 29.1391 27.7581 29.2532 27.8468 29.2532C30.1029 29.2532 38.6457 29.2659 38.8738 29.2278C39.723 29.1645 40.5595 28.9743 41.3454 28.6575C41.3454 28.6575 44.3873 27.6942 45.959 24.234C45.959 24.234 47.3659 21.4202 46.2758 18.1248ZM26.6174 27.4787C26.6681 27.5168 26.7441 27.5294 26.8075 27.4914C28.8608 26.4648 37.4162 22.1173 40.9525 18.6571C40.9525 18.6571 43.1959 16.8573 43.31 13.9548C43.5634 9.93696 39.5202 6.2106 39.5202 6.2106C39.5202 6.2106 32.0422 15.273 26.554 27.2506C26.5452 27.2909 26.5464 27.3328 26.5574 27.3725C26.5685 27.4123 26.5891 27.4487 26.6174 27.4787Z" fill="white"/>
</svg>
