<svg width="141" height="49" viewBox="0 0 141 49" fill="none" xmlns="http://www.w3.org/2000/svg">
<path d="M32.7513 25.5921C32.6932 19.4976 37.7303 16.5695 37.9569 16.4301C35.1217 12.2877 30.7179 11.7183 29.1493 11.6544C25.402 11.271 21.8347 13.8622 19.9291 13.8622C18.0235 13.8622 15.0896 11.7067 11.9813 11.7706C7.89125 11.8287 4.1207 14.1468 2.01175 17.807C-2.22939 25.1622 0.931129 36.0846 5.07351 42.0629C7.10112 44.9852 9.50638 48.2793 12.6785 48.1573C15.7345 48.0353 16.8848 46.182 20.5682 46.182C24.2516 46.182 25.2916 48.1573 28.516 48.0992C31.7985 48.0353 33.8784 45.113 35.8886 42.1791C38.2009 38.7803 39.1595 35.4978 39.2176 35.3235C39.1421 35.2945 32.8211 32.8718 32.7513 25.5921Z" fill="white"/>
<path d="M26.6922 7.69216C28.3771 5.65292 29.51 2.82356 29.2021 0C26.7794 0.0987664 23.8455 1.61512 22.1083 3.65436C20.5513 5.45539 19.186 8.33704 19.5578 11.1025C22.2478 11.3117 25.0132 9.72558 26.6922 7.69216ZM53.9982 31.582L51.2095 40.0352H47.6249L56.7521 13.1708H60.9351L70.0972 40.0352H66.3905L63.5205 31.582H53.9982ZM62.8059 28.8688L60.1799 21.136C59.5815 19.3814 59.1864 17.7896 58.7855 16.2325H58.71C58.3091 17.8244 57.8734 19.457 57.3563 21.0953L54.7303 28.863L62.8059 28.8688ZM72.8161 27.0387C72.8161 24.5696 72.7406 22.571 72.6535 20.7409H75.8024L75.965 24.0525H76.0406C77.4756 21.6996 79.7472 20.3052 82.8961 20.3052C87.5614 20.3052 91.0647 24.25 91.0647 30.1121C91.0647 37.049 86.841 40.471 82.2977 40.471C79.7472 40.471 77.5163 39.3555 76.3601 37.4441H76.2846V47.9249H72.8161V27.0387ZM76.2788 32.1804C76.2788 32.7033 76.3543 33.1739 76.4414 33.6154C77.0805 36.0439 79.1895 37.7229 81.7051 37.7229C85.4118 37.7229 87.5672 34.696 87.5672 30.269C87.5672 26.3997 85.5338 23.0997 81.8271 23.0997C79.4393 23.0997 77.2083 24.8136 76.5228 27.4454C76.4008 27.8812 76.2846 28.404 76.2846 28.8805L76.2788 32.1804ZM94.69 27.0387C94.69 24.5696 94.6145 22.571 94.5273 20.7409H97.6762L97.8389 24.0525H97.9144C99.3494 21.6996 101.621 20.3052 104.77 20.3052C109.435 20.3052 112.939 24.25 112.939 30.1121C112.939 37.049 108.715 40.471 104.172 40.471C101.621 40.471 99.3901 39.3555 98.234 37.4441H98.1584V47.9249H94.69V27.0387ZM98.1584 32.1804C98.1584 32.7033 98.234 33.1739 98.3211 33.6154C98.9602 36.0439 101.069 37.7229 103.585 37.7229C107.291 37.7229 109.447 34.696 109.447 30.269C109.447 26.3997 107.413 23.0997 103.707 23.0997C101.319 23.0997 99.088 24.8136 98.4024 27.4454C98.2804 27.8812 98.1642 28.404 98.1642 28.8805L98.1584 32.1804ZM116.57 11.7358H120.079V40.0294H116.57V11.7358ZM127.132 31.0243C127.207 35.765 130.24 37.7229 133.743 37.7229C136.253 37.7229 137.77 37.2872 139.083 36.7295L139.681 39.2393C138.449 39.797 136.335 40.4361 133.267 40.4361C127.329 40.4361 123.78 36.5319 123.78 30.7105C123.78 24.8891 127.207 20.3052 132.825 20.3052C139.123 20.3052 140.796 25.8419 140.796 29.3917C140.796 30.1121 140.721 30.6641 140.674 31.0243H127.132ZM137.415 28.5144C137.456 26.2835 136.497 22.815 132.552 22.815C129.003 22.815 127.451 26.0859 127.173 28.5144H137.415Z" fill="white"/>
</svg>
