<svg width="152" height="35" viewBox="0 0 152 35" fill="none" xmlns="http://www.w3.org/2000/svg">
<path d="M16.717 0.232163V16.1353C16.717 27.5307 16.775 31.8257 16.9298 31.9418C17.0459 31.9998 17.5102 32.174 17.9552 32.3094C18.3808 32.4448 19.058 32.6576 19.4256 32.7931C19.7932 32.9285 20.6251 33.1993 21.2635 33.3735C21.902 33.5669 22.6178 33.7991 22.8693 33.8765C23.1208 33.9732 23.3917 34.0506 23.4884 34.0506C23.6045 34.0506 23.6819 28.9817 23.6819 20.5465C23.6819 8.08702 23.7012 7.00359 24.0301 6.38449C24.3203 5.78473 24.4364 5.70735 25.0749 5.7267C25.5779 5.74604 25.9068 5.88147 26.1776 6.21037C26.5452 6.65535 26.5646 6.98424 26.5839 12.8077V18.9407L27.4739 19.3469C28.8475 19.9467 30.9757 19.8887 32.1172 19.2309C33.839 18.2248 34.7096 16.1353 34.7096 12.9818C34.7096 9.75086 33.9745 7.56465 32.2913 5.88147C31.3626 4.93347 29.1377 3.48245 28.6347 3.48245C28.4993 3.48245 28.2284 3.34702 28.0156 3.19225C27.8221 3.03747 27.4932 2.90204 27.3191 2.90204C27.1256 2.90204 26.7 2.78596 26.3518 2.63118C25.3651 2.2249 24.4364 1.91535 23.6819 1.74122C23.3143 1.66384 22.7532 1.48971 22.4243 1.39298C21.012 0.909306 17.4715 0 17.0459 0C16.8718 0 16.717 0.116081 16.717 0.232163ZM55.8365 7.00359C55.5463 7.2938 55.527 8.35788 55.8365 8.66743C56.0106 8.84155 58.7966 8.89959 67.1738 8.89959C75.0674 8.89959 78.5305 8.95763 79.0915 9.13175C81.5292 9.8089 82.3612 12.9625 80.5232 14.6263C79.3624 15.6904 79.5945 15.671 69.4374 15.671H60.0348L59.0094 16.1353C58.3709 16.4256 57.6551 16.9866 57.1134 17.5864C55.8558 19.0374 55.5656 20.3336 55.643 24.1837L55.7011 27.1824H60.1509L60.2476 23.5065C60.3443 19.463 60.4024 19.3082 61.6406 18.3602L62.279 17.8959L72.0492 17.7798C77.4277 17.7218 82.0323 17.6057 82.3031 17.509C83.6187 17.064 84.7021 16.0386 85.4954 14.5102C86.0371 13.4655 85.979 11.0084 85.3986 9.88629C84.8376 8.82221 83.8896 7.8742 82.8255 7.31314L82.0129 6.86816L69.0505 6.81012C58.932 6.77143 56.03 6.81012 55.8365 7.00359ZM102.811 6.94555C101.805 7.15837 100.915 7.68073 100.025 8.59004C98.6319 10.0217 98.5545 10.5247 98.5545 16.9866V22.6359L98.0902 23.3904C97.8194 23.7967 97.3163 24.3385 96.9681 24.59C96.3296 25.0543 96.2716 25.0543 90.719 25.1123C87.6429 25.1317 84.9923 25.151 84.8763 25.151C84.7021 25.151 84.6247 25.4993 84.6247 26.2151V27.2792H91.667C99.193 27.2792 99.1736 27.2792 100.702 26.2538C101.321 25.8475 102.385 24.3771 102.675 23.5452C102.792 23.1776 102.927 20.4691 102.985 16.8899L103.101 10.8536L103.856 10.0798C104.262 9.67347 104.823 9.26718 105.113 9.17045C105.384 9.09306 108.189 8.97698 111.324 8.91894L117.031 8.80286V6.86816L110.259 6.84882C106.545 6.82947 103.178 6.86816 102.811 6.94555ZM121.771 7.06163C121.616 7.2551 121.558 8.45461 121.616 11.5501C121.674 16.2321 121.693 16.2708 123.106 17.2381L123.764 17.7024L134.327 17.7992C144.484 17.8959 144.91 17.9153 145.471 18.2829C146.825 19.1922 147.309 20.0628 147.309 21.5718C147.309 22.9455 146.786 23.8354 145.452 24.706C144.949 25.0349 144.155 25.0543 133.476 25.1123C127.207 25.1317 121.945 25.1897 121.81 25.2478C121.635 25.3058 121.577 25.6347 121.616 26.2538L121.674 27.1824L134.443 27.2405C148.663 27.2985 147.831 27.3566 149.592 25.9636C152.474 23.6613 152.474 19.2696 149.592 16.9866C147.851 15.613 148.412 15.671 137.19 15.671C129.548 15.6517 127.014 15.5936 126.801 15.4195C125.95 14.7617 125.834 14.3167 125.834 11.8016C125.834 10.1571 125.911 9.28653 126.066 9.13175C126.24 8.95763 129.277 8.89959 138.525 8.89959C149.495 8.89959 150.753 8.8609 150.869 8.59004C151.062 8.08702 151.004 7.2551 150.753 7.00359C150.578 6.82947 147.096 6.77143 136.262 6.77143C124.034 6.77143 121.984 6.81012 121.771 7.06163ZM14.1052 19.5791C13.7956 19.6952 13.2732 19.8887 12.9443 20.0241C12.6348 20.1595 12.1898 20.3143 11.977 20.3723C11.7642 20.4304 11.1064 20.6625 10.526 20.8947C9.94556 21.1269 9.21038 21.3784 8.88148 21.4751C8.57193 21.5718 7.8174 21.8233 7.23699 22.0555C6.65658 22.2683 5.65054 22.6359 5.01209 22.8487C1.35552 24.1063 -0.405052 25.5186 0.0786213 26.7955C0.426866 27.7435 1.66507 28.5948 3.27087 29.0204C3.59976 29.1171 4.12213 29.2719 4.43168 29.388C6.25029 30.0071 8.16564 30.2199 11.3579 30.1425C15.266 30.0651 15.1692 30.1232 15.1692 27.8209C15.1692 26.0216 15.1886 26.0216 13.428 26.6988C10.9516 27.6468 9.88752 27.8983 8.66866 27.8209C7.25634 27.7242 6.5405 27.2792 6.85005 26.6794C6.96613 26.486 7.33372 26.2538 7.68197 26.1377C8.01087 26.041 8.78474 25.7701 9.36515 25.538C9.94556 25.3058 10.642 25.0736 10.9129 25.0156C11.1838 24.9575 11.4933 24.8221 11.6287 24.7254C11.7642 24.6093 12.1511 24.4545 12.4994 24.3771C13.6215 24.0869 14.879 23.5839 15.0145 23.3518C15.1886 23.0809 15.2273 20.0821 15.0532 19.6565C14.9177 19.3082 14.9177 19.3082 14.1052 19.5791Z" fill="white"/>
<path d="M29.8728 21.3204C28.3637 21.5332 26.487 21.9976 25.8099 22.3264C25.3456 22.5393 25.3262 22.6167 25.3262 24.5707C25.3262 26.9117 25.2875 26.873 27.1642 26.1185C27.7446 25.8863 28.4991 25.6348 28.8087 25.538C29.1376 25.4413 29.8728 25.1898 30.4532 24.9576C31.0336 24.7255 31.7881 24.474 32.0977 24.3966C32.4266 24.3192 32.8715 24.1451 33.1037 24.029C33.3359 23.8936 34.3612 23.7968 35.464 23.7968C37.2439 23.7968 37.4181 23.8355 37.6309 24.2031C37.7857 24.532 37.7857 24.6674 37.5728 24.8802C37.2826 25.1705 35.5414 25.8863 34.7095 26.0604C34.4386 26.1185 34.1484 26.2345 34.0324 26.3119C33.9356 26.3893 33.5293 26.5634 33.1617 26.6602C32.7941 26.7762 32.0009 27.0471 31.4205 27.2793C30.8401 27.5114 30.1049 27.7629 29.776 27.8597C29.4665 27.9564 28.7119 28.2079 28.1315 28.4401C27.5511 28.6722 26.7772 28.9238 26.429 29.0205C25.3069 29.2913 25.2295 29.4655 25.2295 31.5549C25.2295 33.4509 25.2295 33.4703 25.6938 33.4703C25.9647 33.4703 26.2162 33.3929 26.2742 33.2962C26.3323 33.1994 26.6225 33.0834 26.9127 33.0253C27.2222 32.9673 27.8026 32.7931 28.2283 32.619C28.6539 32.4642 29.4858 32.1353 30.0662 31.9225C30.6466 31.6904 31.4012 31.4389 31.7107 31.3421C32.0396 31.2454 32.7748 30.9939 33.3552 30.7617C35.406 29.9685 35.967 29.775 36.5475 29.6009C36.8764 29.5235 37.6115 29.2527 38.1919 29.0205C38.7724 28.7883 39.4688 28.5368 39.7397 28.4401C43.5897 27.1051 44.9827 25.7122 43.9573 24.1838C43.1835 23.0229 40.0686 21.7847 36.6829 21.3011C35.0577 21.0496 31.672 21.0689 29.8728 21.3204Z" fill="white"/>
</svg>
