<svg width="61" height="61" viewBox="0 0 61 61" fill="none" xmlns="http://www.w3.org/2000/svg">
<path d="M30.5 60C46.7924 60 60 46.7924 60 30.5C60 14.2076 46.7924 1 30.5 1C14.2076 1 1 14.2076 1 30.5C1 46.7924 14.2076 60 30.5 60Z" stroke="white"/>
<path d="M12.4619 30.5022C12.4619 20.5398 20.5376 12.4643 30.5003 12.4639C40.4623 12.4643 48.5376 20.5396 48.538 30.5022C48.5376 40.4643 40.4623 48.5396 30.5003 48.5402C20.5376 48.5396 12.4619 40.4643 12.4619 30.5022ZM18.465 18.4674C15.3842 21.549 13.4805 25.8006 13.4801 30.5022C13.4805 35.2036 15.3842 39.4554 18.465 42.5369C21.5467 45.6173 25.7983 47.5213 30.5003 47.5218C35.2012 47.5213 39.4529 45.6173 42.5345 42.5369C45.6152 39.4554 47.519 35.2036 47.5194 30.5022C47.519 25.8006 45.6152 21.549 42.5345 18.4674C39.4529 15.3865 35.2012 13.4829 30.5003 13.4825C25.7983 13.4829 21.5467 15.3865 18.465 18.4674Z" fill="white"/>
<path d="M12.4697 30.5012H30.5093V12.4639H30.5081C20.5458 12.4643 12.4704 20.5391 12.4697 30.5012Z" fill="white"/>
<path d="M48.5347 30.4922H30.4951V48.5414H30.4964C40.4584 48.5409 48.5341 40.4542 48.5347 30.4922Z" fill="white"/>
<path d="M51.4026 13.8212L47.3827 16.4805L49.2849 12.7808C48.7904 12.1965 48.0418 11.5823 48.0418 11.5823L44.3721 13.4249L47.0649 9.47649C46.6179 9.10112 46.1006 8.78895 45.6044 8.41254L41.8354 14.2913C41.8354 14.2913 42.5492 14.7112 43.4225 15.5176L47.3231 13.4999L45.28 17.3389C45.7395 17.8242 46.1486 18.4122 46.5742 18.937L52.511 15.2651C52.5108 15.2651 52.1475 14.6939 51.4026 13.8212ZM30.9188 9.81277L32.7276 5.81577L32.8912 10.8829C33.6197 10.9154 34.6944 11.1895 34.6944 11.1895L34.3698 4.01254C33.0057 3.81426 31.9172 3.76001 31.9172 3.76001L30.1745 8.09538L28.4727 3.79493C28.4727 3.79493 27.3487 3.90446 25.9844 4.10253L25.6579 11.3348C25.6579 11.3348 26.7347 11.0232 27.4632 10.991L27.617 5.84632L29.4304 9.81257L30.9188 9.81277ZM15.6098 12.1626L15.61 12.1554C15.6977 11.8331 15.6946 11.4929 15.6009 11.1723C15.5073 10.8518 15.3268 10.5634 15.0794 10.339C14.3455 9.66957 13.2522 9.64692 12.0856 10.8112C12.0856 10.8112 9.93528 12.9674 8.47852 15.0791L13.7101 19.8501L17.6529 15.4299C18.5106 14.4824 18.5441 13.1403 17.7595 12.4243C17.1727 11.8902 16.3223 11.8143 15.6098 12.1626ZM10.5634 14.727C12.4167 12.4312 13.1587 11.8037 13.1587 11.8037C13.6446 11.3832 14.004 11.3464 14.2956 11.6123C14.5874 11.8779 14.5506 12.3946 14.2139 12.7658L11.5945 15.6668L10.5634 14.727ZM16.4528 14.5341L13.7018 17.5883L12.6678 16.6456L15.419 13.5915C15.7553 13.2201 16.2599 13.1295 16.5455 13.3899C16.831 13.6504 16.7893 14.1629 16.4528 14.5341Z" fill="white"/>
</svg>
