<svg width="125" height="19" viewBox="0 0 125 19" fill="none" xmlns="http://www.w3.org/2000/svg">
<path fill-rule="evenodd" clip-rule="evenodd" d="M68.3976 8.48044C68.3976 8.48044 67.184 7.73007 66.4336 7.43972C66.4336 7.43972 64.1109 6.36319 63.6501 5.85101C63.6501 5.85101 62.7448 4.99788 63.2749 4.00697C63.2749 4.00697 63.4967 3.35856 64.4534 3.35856C64.4534 3.35856 65.6988 3.42706 65.6988 4.45066V5.8946H70.1622L70.1544 3.768C70.1544 3.768 70.4977 0.285438 64.8971 0.132093C64.8971 0.132093 60.4921 -0.157476 59.2288 2.21509C59.2288 2.21509 58.7329 2.74441 58.7329 4.58766V5.9195C58.7329 5.9195 58.6823 7.45607 59.467 8.44619C59.467 8.44619 59.9107 9.09538 61.0035 9.81151C61.0035 9.81151 63.2228 11.0064 64.5546 11.6906C64.5546 11.6906 65.8989 12.4581 65.7222 13.6794C65.7222 13.6794 65.6124 14.9334 64.3141 14.882C64.3141 14.882 63.127 14.8291 63.127 13.5992V12.1561H58.371V14.2523C58.371 14.2523 58.2379 18.2611 64.3491 18.2611C64.3491 18.2611 70.1887 18.3794 70.4611 14.1472V12.4402C70.4603 12.4402 70.6674 9.84654 68.3976 8.48044ZM45.5468 0.631048L44.0523 9.99677H43.7028L42.2752 0.715116H34.8197L34.446 17.6757H38.8603L38.9133 4.89669H39.2604L41.6003 17.6734H46.2443L48.5553 4.90136H48.8628L48.9694 17.6757H53.4071L52.9292 0.631048H45.5468ZM19.2696 0.701885L16.3326 17.6562H21.0848L22.8245 4.5106H23.2153L24.9542 17.6562H29.7056L26.7694 0.701885H19.2696ZM118.984 8.24692V10.7479H120.203V13.4326C120.203 14.745 119.082 14.7691 119.082 14.7691C117.718 14.7691 117.769 13.5221 117.769 13.5221V4.23582C117.769 3.27917 118.98 3.22779 118.98 3.22779C120.141 3.22779 120.149 4.36893 120.149 4.36893V5.78095H124.623C124.769 3.02463 124.22 2.35754 124.22 2.35754C123.11 -0.134897 118.911 0.0013226 118.911 0.0013226C112.459 0.0013226 113.175 4.95195 113.175 4.95195V13.9308C113.314 18.574 119.672 18.1023 119.779 18.0984C122.607 17.7855 123.461 16.8864 123.461 16.8864C124.247 16.3026 124.449 15.4938 124.449 15.4938C124.674 15.0229 124.73 13.5221 124.73 13.5221V8.24692H118.984ZM104.153 11.0064H103.959L99.4184 0.635715H93.9859V17.6773H98.4072L98.1426 7.30817H98.3403L103.044 17.6773H108.312V0.634159H103.834L104.153 11.0064ZM83.1934 13.4311C83.1934 13.4311 83.2572 14.8299 81.9604 14.8299C81.9604 14.8299 80.5967 14.903 80.5967 13.4661L80.5826 0.645835H75.7332V13.3641C75.7332 13.3641 75.2358 18.1778 82.0289 18.1778C82.0289 18.1778 87.9323 18.2478 87.9323 13.5852V0.646613H83.1934V13.4311ZM10.0245 8.48044C10.0245 8.48044 8.81251 7.73007 8.06135 7.4405C8.06135 7.4405 5.74016 6.36475 5.27935 5.85178C5.27935 5.85178 4.37407 4.9971 4.90494 4.00853C4.90494 4.00853 5.126 3.36012 6.08188 3.36012C6.08188 3.36012 7.3281 3.42784 7.3281 4.45144V5.89537H11.793L11.7844 3.768C11.7844 3.768 12.1254 0.285438 6.52712 0.132871C6.52712 0.132871 6.10523 0.105625 5.4864 0.136761C5.4864 0.136761 2.09491 0.318907 0.882161 2.17929C0.875156 2.1933 0.865036 2.20342 0.858031 2.21587C0.858031 2.21587 0.362968 2.74441 0.362968 4.58844V5.92028C0.362968 5.92028 0.311593 7.45685 1.097 8.44697C1.097 8.44697 1.54069 9.09616 2.63356 9.81229C2.63356 9.81229 4.85201 11.0071 6.18385 11.6913C6.18385 11.6913 7.52971 12.4573 7.35145 13.6802C7.35145 13.6802 7.2417 14.9342 5.9441 14.8828C5.9441 14.8828 4.75704 14.8299 4.75704 13.6V12.1561H0.000231933V14.2538C0.000231933 14.2538 -0.132874 18.2626 5.97835 18.2626C5.97835 18.2626 11.8164 18.3809 12.0911 14.1488V12.4433C12.0911 12.4417 12.2951 9.84654 10.0245 8.48044Z" fill="white"/>
</svg>
