<svg width="64" height="64" viewBox="0 0 64 64" fill="none" xmlns="http://www.w3.org/2000/svg">
<path d="M31.5684 63.1364C31.2546 63.1364 30.9421 63.1309 30.6301 63.1218L37.0817 45.3913H45.9603C47.5187 45.3913 49.2294 44.1933 49.7624 42.7296L56.7615 23.5043C57.9067 20.3567 56.1038 17.7815 52.7545 17.7815H40.437L30.1025 46.1806H30.0985L24.2394 62.2794C10.3392 58.975 0 46.4795 0 31.5682C0 17.087 9.75112 4.8843 23.0453 1.16539L16.9999 17.7815H16.9981L6.94796 45.3913L13.6383 45.3919L22.1851 21.9306H27.2134L18.6665 45.3919L25.3544 45.393L33.3192 23.5043C34.465 20.3567 32.662 17.7815 29.3158 17.7815H23.6919L30.1492 0.0331759C30.6198 0.0122765 31.0925 0 31.5681 0C49.0029 0 63.1364 14.1335 63.1364 31.5682C63.1364 49.0028 49.0029 63.1364 31.5681 63.1364H31.5684ZM50.669 21.9136H45.6421L38.6026 41.2284H43.6295L50.669 21.9136Z" fill="white"/>
</svg>
