<svg width="136" height="29" viewBox="0 0 136 29" fill="none" xmlns="http://www.w3.org/2000/svg">
<path d="M10.6627 19.9886C12.8284 23.5395 16.8004 25.9219 21.221 25.9219C27.7526 25.9219 31.3482 20.2851 31.3482 20.2851L31.811 21.7866C28.7871 25.7194 23.385 28.0886 17.3411 28.0886C10.3826 28.0886 4.38139 24.7691 1.62006 19.9821C0.580374 18.1791 0 16.1651 0 14.0441C0 6.28751 7.76304 0 17.3408 0C24.1081 0 29.5566 2.89863 32.4168 7.09929L21.062 13.8988L27.5422 3.94829C25.6882 2.7823 23.4137 1.69045 21.062 1.69045C14.414 1.69045 8.93851 7.23808 8.93851 13.8858C8.93851 16.1132 9.57106 18.206 10.6627 19.9886ZM41.0663 19.9846C41.0322 20.2114 41.0152 20.4404 41.0154 20.6698C41.0154 23.1932 43.0613 25.2394 45.585 25.2394C48.1087 25.2394 50.1543 23.1935 50.1543 20.6698C50.1544 20.4396 50.1373 20.2097 50.1031 19.9821C49.7726 17.7862 47.8757 16.1005 45.5847 16.1005C43.2939 16.1005 41.3968 17.7862 41.0663 19.9846ZM58.0219 19.9821L60.293 27.632H52.3265L50.7601 22.3937C49.7112 25.4121 46.1713 27.632 41.9662 27.632C36.9348 27.632 32.8564 24.4543 32.8564 20.5338C32.8564 20.3503 32.8654 20.1681 32.8829 19.9821C33.2408 16.3229 37.1707 13.4355 41.9662 13.4355C44.6881 13.4355 47.1311 14.3656 48.8004 15.8401L46.6304 8.58504H37.4872C37.4872 8.58504 39.0084 7.67267 45.7545 5.21812C52.5005 2.76383 54.6383 8.58504 54.6383 8.58504L58.0219 19.9821ZM83.4928 19.9821V27.632H75.2956V10.8244C75.2956 10.2305 75.0597 9.6609 74.6397 9.24094C74.2198 8.82098 73.6502 8.58504 73.0562 8.58504C72.6052 8.58494 72.1646 8.72105 71.7922 8.97556C71.4198 9.23006 71.1329 9.5911 70.9691 10.0114V27.632H62.924V8.58504H58.2321C58.2321 8.58504 64.7593 4.63076 67.0226 4.63076C69.1676 4.63076 70.7552 6.27877 70.9537 8.37811C74.1104 6.67543 77.2407 4.63076 79.3944 4.63076C81.6196 4.63076 83.4308 6.40408 83.4928 8.615V19.9821ZM96.1204 19.9821L97.2612 23.7527C97.2832 25.3687 98.6112 26.6615 100.241 26.6615C101.908 26.6615 103.258 25.311 103.258 23.6448C103.258 23.5267 103.251 23.4107 103.238 23.2963L102.268 19.9821L98.8628 8.34291C98.6951 6.83468 97.4167 5.6622 95.8638 5.6622C94.3266 5.6622 92.8611 7.09854 92.6739 8.58479L96.1204 19.9821ZM109.166 19.9836C107.613 24.6907 103.18 28.0886 97.9522 28.0886C92.7243 28.0886 88.2905 24.691 86.7376 19.9821C86.3445 18.7886 86.1449 17.54 86.1462 16.2834C86.1462 9.76352 91.4318 4.47849 97.9522 4.47849C104.472 4.47849 109.758 9.76352 109.758 16.2834C109.758 17.5757 109.55 18.8198 109.166 19.9836ZM122.738 19.9821V27.632H114.693V8.58504H110.194C110.194 8.58504 116.528 4.63076 118.791 4.63076C120.937 4.63076 122.524 6.27877 122.723 8.37811C125.88 6.67543 129.01 4.63076 131.163 4.63076C133.389 4.63076 135.2 6.40408 135.262 8.615V27.632H127.064V10.8244C127.064 10.2305 126.829 9.6609 126.409 9.24094C125.989 8.82098 125.419 8.58504 124.825 8.58504C124.374 8.58494 123.933 8.72105 123.561 8.97556C123.189 9.23006 122.902 9.5911 122.738 10.0114V19.9821Z" fill="white"/>
</svg>
