<svg width="143" height="25" viewBox="0 0 143 25" fill="none" xmlns="http://www.w3.org/2000/svg">
<path fill-rule="evenodd" clip-rule="evenodd" d="M142.116 21.7684C142.116 21.5625 142.025 21.346 141.843 21.2427C141.66 21.134 141.454 21.1233 141.249 21.1233H140.186V23.5622H140.483V22.4373H141.032L141.728 23.5622H142.083L141.346 22.4373C141.78 22.425 142.116 22.2482 142.116 21.7684ZM140.94 22.2023H140.483V21.3398H141.179C141.482 21.3398 141.814 21.3858 141.814 21.763C141.815 22.2597 141.282 22.2023 140.94 22.2023ZM128.205 9.97696L132.667 5.21309C132.925 4.86335 133.054 4.61847 133.054 4.40878C133.054 4.05905 132.753 3.919 131.807 3.919H130.682V0.911451H142.866V3.919H141.265C139.416 3.919 139.073 4.19833 136.493 7.45077L129.435 15.073V19.7243C129.435 20.9144 130.036 21.333 131.756 21.333H134.421V24.2349H117.354V21.333H120.019C121.738 21.333 122.34 20.9144 122.34 19.7243V15.073L114.027 5.87659C112.653 4.26873 112.843 3.919 109.018 3.919V0.911451H124.452V3.919H123.353C122.235 3.919 121.761 4.12869 121.761 4.54806C121.761 4.89856 122.105 5.17789 122.32 5.45721L126.526 10.0412C127.026 10.5609 127.636 10.6282 128.205 9.97696ZM24.6497 0.910686H28.3728V9.30275H24.9344C24.6298 7.62525 23.5798 6.97247 22.6225 6.0924C20.8952 4.50521 17.1545 3.18356 14.0085 3.18356C9.94788 3.18356 6.52095 4.44322 6.52095 6.2952C6.52095 11.4363 29.7434 7.34516 29.7434 17.0658C29.7434 22.1357 24.7691 24.968 15.8359 24.968C12.7434 24.968 8.06376 24.0084 5.30263 22.5421C4.4371 22.0424 4.06976 23.015 3.90752 24.2341H0.0903031V15.562H3.54325C4.3047 17.7652 5.3539 18.219 6.31892 19.0937C7.99335 20.6327 11.9789 21.7523 15.6339 21.7164C21.1447 21.662 23.0395 20.4575 23.0395 18.7088C23.0395 16.9609 21.1654 16.5408 15.1265 15.5972L9.99915 14.7577C4.21287 13.883 0 12.5896 0 7.97422C0 3.18357 5.32941 0.176011 13.7559 0.176011C17.3068 0.176011 20.2776 0.650489 23.1291 2.26217C23.9188 2.77567 24.6596 2.8369 24.6497 0.910686ZM97.3085 14.9612L97.3819 5.63399C97.3819 4.41031 96.7452 3.99093 94.9261 3.99093H92.7887V1.08899H106.388V3.99093H104.615C102.795 3.99093 102.158 4.41108 102.158 5.63399V24.4117L96.8355 24.3696L79.5983 8.04692V19.9011C79.5983 21.0904 80.2351 21.5442 82.0541 21.5442H84.4204V24.4117H70.2971V21.5442H72.6374C74.4564 21.5442 75.0931 21.0896 75.0931 19.9011V5.63399C75.0931 4.41031 74.4564 3.99093 72.6374 3.99093H70.2971V1.08899H82.5079L97.3085 14.9612ZM51.7567 0C40.9188 0 34.1346 4.79142 34.1346 12.4833C34.1346 20.0373 40.8246 24.792 51.4261 24.792C62.6864 24.792 69.2364 20.107 69.2364 12.0991C69.2372 4.89626 62.1691 0 51.7567 0ZM51.5103 21.7508C45.5112 21.7508 42.0629 18.2887 42.0629 12.3088C42.0629 6.46968 45.6612 3.00755 51.8102 3.00755C57.709 3.00755 61.1574 6.54009 61.1574 12.5544C61.1574 18.4287 57.6585 21.7508 51.5103 21.7508Z" fill="white"/>
</svg>
