<svg width="291" height="93" viewBox="0 0 291 93" fill="none" xmlns="http://www.w3.org/2000/svg">
<g style="mix-blend-mode:multiply" opacity="0.2">
<path opacity="0.02" d="M249.265 11.1825H51.1724C28.8024 11.1825 10.668 29.317 10.668 51.687C10.668 74.057 28.8024 92.1914 51.1724 92.1914H249.265C271.635 92.1914 289.77 74.057 289.77 51.687C289.77 29.317 271.635 11.1825 249.265 11.1825Z" fill="#FBFBFB"/>
<path opacity="0.04" d="M249.265 11.563H51.1718C29.0119 11.563 11.0479 29.5271 11.0479 51.687C11.0479 73.8468 29.0119 91.8109 51.1718 91.8109H249.265C271.424 91.8109 289.389 73.8468 289.389 51.687C289.389 29.5271 271.424 11.563 249.265 11.563Z" fill="#F6F6F6"/>
<path opacity="0.06" d="M249.265 11.9434H51.1721C29.2224 11.9434 11.4287 29.7371 11.4287 51.6868C11.4287 73.6365 29.2224 91.4302 51.1721 91.4302H249.265C271.215 91.4302 289.008 73.6365 289.008 51.6868C289.008 29.7371 271.215 11.9434 249.265 11.9434Z" fill="#F2F2F2"/>
<path opacity="0.08" d="M249.265 12.324H51.1724C29.4329 12.324 11.8096 29.9473 11.8096 51.6868C11.8096 73.4263 29.4329 91.0497 51.1724 91.0497H249.265C271.005 91.0497 288.628 73.4263 288.628 51.6868C288.628 29.9473 271.005 12.324 249.265 12.324Z" fill="#EEEDEE"/>
<path opacity="0.1" d="M249.265 12.7046H51.1718C29.6424 12.7046 12.1895 30.1576 12.1895 51.6869C12.1895 73.2162 29.6424 90.6692 51.1718 90.6692H249.265C270.794 90.6692 288.247 73.2162 288.247 51.6869C288.247 30.1576 270.794 12.7046 249.265 12.7046Z" fill="#E9E9E9"/>
<path opacity="0.12" d="M249.265 13.0852H51.1721C29.8529 13.0852 12.5703 30.3678 12.5703 51.687C12.5703 73.0061 29.8529 90.2887 51.1721 90.2887H249.265C270.584 90.2887 287.867 73.0061 287.867 51.687C287.867 30.3678 270.584 13.0852 249.265 13.0852Z" fill="#E5E5E5"/>
<path opacity="0.14" d="M249.265 13.4655H51.1724C30.0634 13.4655 12.9512 30.5777 12.9512 51.6867C12.9512 72.7958 30.0634 89.908 51.1724 89.908H249.265C270.374 89.908 287.486 72.7958 287.486 51.6867C287.486 30.5777 270.374 13.4655 249.265 13.4655Z" fill="#E1E0E0"/>
<path opacity="0.16" d="M249.281 13.8461H51.1727C30.2739 13.8461 13.332 30.788 13.332 51.6868C13.332 72.5857 30.2739 89.5275 51.1727 89.5275H249.281C270.18 89.5275 287.121 72.5857 287.121 51.6868C287.121 30.788 270.18 13.8461 249.281 13.8461Z" fill="#DCDCDC"/>
<path opacity="0.18" d="M249.28 14.2267H51.1721C30.4834 14.2267 13.7119 30.9982 13.7119 51.6868C13.7119 72.3755 30.4834 89.147 51.1721 89.147H249.28C269.969 89.147 286.74 72.3755 286.74 51.6868C286.74 30.9982 269.969 14.2267 249.28 14.2267Z" fill="#D8D7D8"/>
<path opacity="0.2" d="M249.279 14.6073H51.1714C30.6929 14.6073 14.0918 31.2084 14.0918 51.6869C14.0918 72.1654 30.6929 88.7665 51.1714 88.7665H249.279C269.758 88.7665 286.359 72.1654 286.359 51.6869C286.359 31.2084 269.758 14.6073 249.279 14.6073Z" fill="#D4D3D3"/>
<path opacity="0.22" d="M249.28 14.9879H51.1717C30.9034 14.9879 14.4727 31.4187 14.4727 51.687C14.4727 71.9553 30.9034 88.3861 51.1717 88.3861H249.28C269.548 88.3861 285.979 71.9553 285.979 51.687C285.979 31.4187 269.548 14.9879 249.28 14.9879Z" fill="#D0CFCF"/>
<path opacity="0.24" d="M51.1721 15.3682H249.265C269.312 15.3682 285.583 31.64 285.583 51.6868C285.583 71.7335 269.312 88.0053 249.265 88.0053H51.1721C31.1253 88.0053 14.8535 71.7335 14.8535 51.6868C14.8535 31.64 31.1253 15.3682 51.1721 15.3682Z" fill="#CBCACB"/>
<path opacity="0.25" d="M249.28 15.7488H51.1724C31.3244 15.7488 15.2344 31.8388 15.2344 51.6868V51.7021C15.2344 71.5501 31.3244 87.6401 51.1724 87.6401H249.28C269.128 87.6401 285.218 71.5501 285.218 51.7021V51.6868C285.218 31.8388 269.128 15.7488 249.28 15.7488Z" fill="#C7C6C6"/>
<path opacity="0.27" d="M249.281 16.1294H51.1727C31.5349 16.1294 15.6152 32.049 15.6152 51.6869V51.7021C15.6152 71.3399 31.5349 87.2595 51.1727 87.2595H249.281C268.919 87.2595 284.838 71.3399 284.838 51.7021V51.6869C284.838 32.049 268.919 16.1294 249.281 16.1294Z" fill="#C3C2C2"/>
<path opacity="0.29" d="M249.279 16.51H51.1711C31.7434 16.51 15.9941 32.2593 15.9941 51.6869V51.7022C15.9941 71.1298 31.7434 86.8791 51.1711 86.8791H249.279C268.707 86.8791 284.456 71.1298 284.456 51.7022V51.6869C284.456 32.2593 268.707 16.51 249.279 16.51Z" fill="#BEBDBD"/>
<path opacity="0.31" d="M51.1714 16.8906H249.264C268.474 16.8906 284.061 32.4775 284.061 51.687C284.061 70.8966 268.474 86.4834 249.264 86.4834H51.1714C31.9618 86.4834 16.375 70.8966 16.375 51.687C16.375 32.4775 31.9618 16.8906 51.1714 16.8906Z" fill="#BAB9B9"/>
<path opacity="0.33" d="M249.28 17.2709H51.1717C32.1644 17.2709 16.7559 32.6794 16.7559 51.6868V51.702C16.7559 70.7094 32.1644 86.1179 51.1717 86.1179H249.28C268.287 86.1179 283.696 70.7094 283.696 51.702V51.6868C283.696 32.6794 268.287 17.2709 249.28 17.2709Z" fill="#B6B4B5"/>
<path opacity="0.35" d="M249.28 17.6516H51.172C32.3748 17.6516 17.1367 32.8897 17.1367 51.6869V51.7021C17.1367 70.4993 32.3748 85.7374 51.172 85.7374H249.28C268.077 85.7374 283.315 70.4993 283.315 51.7021V51.6869C283.315 32.8897 268.077 17.6516 249.28 17.6516Z" fill="#B1B0B0"/>
<path opacity="0.37" d="M249.28 18.0321H51.1724C32.5853 18.0321 17.5176 33.0999 17.5176 51.6869V51.7021C17.5176 70.2891 32.5853 85.3569 51.1724 85.3569H249.28C267.867 85.3569 282.935 70.2891 282.935 51.7021V51.6869C282.935 33.0999 267.867 18.0321 249.28 18.0321Z" fill="#ADACAC"/>
<path opacity="0.39" d="M51.1727 18.4127H249.266C267.638 18.4127 282.54 33.3298 282.54 51.687C282.54 70.0593 267.623 84.9612 249.266 84.9612H51.1727C32.8003 84.9612 17.8984 70.0441 17.8984 51.687C17.8984 33.3146 32.8155 18.4127 51.1727 18.4127Z" fill="#A9A7A8"/>
<path opacity="0.41" d="M249.281 18.7931H51.173C33.0063 18.7931 18.2793 33.5201 18.2793 51.6868V51.702C18.2793 69.8687 33.0063 84.5957 51.173 84.5957H249.281C267.448 84.5957 282.175 69.8687 282.175 51.702V51.6868C282.175 33.5201 267.448 18.7931 249.281 18.7931Z" fill="#A4A3A3"/>
<path opacity="0.43" d="M249.279 19.1736H51.1714C33.2148 19.1736 18.6582 33.7303 18.6582 51.6868V51.702C18.6582 69.6586 33.2148 84.2152 51.1714 84.2152H249.279C267.236 84.2152 281.793 69.6586 281.793 51.702V51.6868C281.793 33.7303 267.236 19.1736 249.279 19.1736Z" fill="#A09E9F"/>
<path opacity="0.45" d="M249.265 19.5543H51.1869C33.4321 19.5543 19.0391 33.9439 19.0391 51.6945C19.0391 69.445 33.4321 83.8347 51.1869 83.8347H249.265C267.019 83.8347 281.412 69.445 281.412 51.6945C281.412 33.9439 267.019 19.5543 249.265 19.5543Z" fill="#9C9A9A"/>
<path opacity="0.47" d="M249.265 19.9348H51.1872C33.6426 19.9348 19.4199 34.1541 19.4199 51.6945C19.4199 69.2349 33.6426 83.4542 51.1872 83.4542H249.265C266.809 83.4542 281.032 69.2349 281.032 51.6945C281.032 34.1541 266.809 19.9348 249.265 19.9348Z" fill="#979696"/>
<path opacity="0.49" d="M249.265 20.3154H51.1875C33.8531 20.3154 19.8008 34.3644 19.8008 51.6946C19.8008 69.0248 33.8531 83.0737 51.1875 83.0737H249.265C266.6 83.0737 280.652 69.0248 280.652 51.6946C280.652 34.3644 266.6 20.3154 249.265 20.3154Z" fill="#939192"/>
<path opacity="0.51" d="M249.265 20.6958H51.1879C34.0636 20.6958 20.1816 34.5744 20.1816 51.6944C20.1816 68.8145 34.0636 82.693 51.1879 82.693H249.265C266.39 82.693 280.272 68.8145 280.272 51.6944C280.272 34.5744 266.39 20.6958 249.265 20.6958Z" fill="#8F8D8D"/>
<path opacity="0.53" d="M249.266 21.0764H51.1882C34.2741 21.0764 20.5625 34.7845 20.5625 51.6944C20.5625 68.6043 34.2741 82.3125 51.1882 82.3125H249.266C266.18 82.3125 279.892 68.6043 279.892 51.6944C279.892 34.7845 266.18 21.0764 249.266 21.0764Z" fill="#8B8889"/>
<path opacity="0.55" d="M249.279 21.457H51.1866C34.4826 21.457 20.9414 34.9948 20.9414 51.6945C20.9414 68.3942 34.4826 81.9321 51.1866 81.9321H249.279C265.983 81.9321 279.525 68.3942 279.525 51.6945C279.525 34.9948 265.983 21.457 249.279 21.457Z" fill="#868485"/>
<path opacity="0.57" d="M249.28 21.8375H51.1869C34.6931 21.8375 21.3223 35.205 21.3223 51.6945C21.3223 68.1841 34.6931 81.5515 51.1869 81.5515H249.28C265.773 81.5515 279.144 68.1841 279.144 51.6945C279.144 35.205 265.773 21.8375 249.28 21.8375Z" fill="#828080"/>
<path opacity="0.59" d="M249.28 22.2179H51.1872C34.9036 22.2179 21.7031 35.415 21.7031 51.6944C21.7031 67.9738 34.9036 81.1708 51.1872 81.1708H249.28C265.564 81.1708 278.764 67.9738 278.764 51.6944C278.764 35.415 265.564 22.2179 249.28 22.2179Z" fill="#7E7B7C"/>
<path opacity="0.61" d="M249.28 22.5985H51.1875C35.1141 22.5985 22.084 35.6252 22.084 51.6944C22.084 67.7637 35.1141 80.7904 51.1875 80.7904H249.28C265.354 80.7904 278.384 67.7637 278.384 51.6944C278.384 35.6252 265.354 22.5985 249.28 22.5985Z" fill="#797777"/>
<path opacity="0.63" d="M249.28 22.9791H51.1869C35.3236 22.9791 22.4639 35.8354 22.4639 51.6945C22.4639 67.5535 35.3236 80.4098 51.1869 80.4098H249.28C265.143 80.4098 278.003 67.5535 278.003 51.6945C278.003 35.8354 265.143 22.9791 249.28 22.9791Z" fill="#757273"/>
<path opacity="0.65" d="M51.1725 23.3597H249.265C264.913 23.3597 277.608 36.0544 277.608 51.7021C277.608 67.3499 264.913 80.0446 249.265 80.0446H51.1725C35.5248 80.0446 22.8301 67.3499 22.8301 51.7021C22.8301 36.0544 35.5248 23.3597 51.1725 23.3597Z" fill="#716E6F"/>
<path opacity="0.67" d="M249.266 23.725H51.1729C35.7299 23.725 23.2109 36.244 23.2109 51.6869C23.2109 67.1299 35.7299 79.6488 51.1729 79.6488H249.266C264.709 79.6488 277.228 67.1299 277.228 51.6869C277.228 36.244 264.709 23.725 249.266 23.725Z" fill="#6C6A6A"/>
<path opacity="0.69" d="M249.266 24.1055H51.1732C35.9404 24.1055 23.5918 36.4541 23.5918 51.6869C23.5918 66.9197 35.9404 79.2683 51.1732 79.2683H249.266C264.499 79.2683 276.847 66.9197 276.847 51.6869C276.847 36.4541 264.499 24.1055 249.266 24.1055Z" fill="#686566"/>
<path opacity="0.71" d="M249.266 24.4859H51.1735C36.1509 24.4859 23.9727 36.6641 23.9727 51.6868C23.9727 66.7094 36.1509 78.8876 51.1735 78.8876H249.266C264.289 78.8876 276.467 66.7094 276.467 51.6868C276.467 36.6641 264.289 24.4859 249.266 24.4859Z" fill="#646162"/>
<path opacity="0.73" d="M51.1719 24.8665H249.265C264.06 24.8665 276.085 36.8763 276.085 51.6868C276.085 66.4822 264.075 78.5071 249.265 78.5071H51.1719C36.3766 78.5071 24.3516 66.4974 24.3516 51.6868C24.3516 36.8915 36.3613 24.8665 51.1719 24.8665Z" fill="#5F5C5D"/>
<path opacity="0.75" d="M249.265 25.2471H51.1722C36.5699 25.2471 24.7324 37.0846 24.7324 51.6868C24.7324 66.2891 36.5699 78.1266 51.1722 78.1266H249.265C263.867 78.1266 275.705 66.2891 275.705 51.6868C275.705 37.0846 263.867 25.2471 249.265 25.2471Z" fill="#5B5859"/>
<path opacity="0.76" d="M249.265 25.6277H51.1725C36.7804 25.6277 25.1133 37.2948 25.1133 51.6869C25.1133 66.0791 36.7804 77.7462 51.1725 77.7462H249.265C263.658 77.7462 275.325 66.0791 275.325 51.6869C275.325 37.2948 263.658 25.6277 249.265 25.6277Z" fill="#575454"/>
<path opacity="0.78" d="M249.266 26.0082H51.1728C36.9909 26.0082 25.4941 37.505 25.4941 51.6869C25.4941 65.8689 36.9909 77.3656 51.1728 77.3656H249.266C263.448 77.3656 274.944 65.8689 274.944 51.6869C274.944 37.505 263.448 26.0082 249.266 26.0082Z" fill="#524F50"/>
<path opacity="0.8" d="M249.266 26.3886H51.1732C37.2014 26.3886 25.875 37.715 25.875 51.6868C25.875 65.6586 37.2014 76.9849 51.1732 76.9849H249.266C263.238 76.9849 274.564 65.6586 274.564 51.6868C274.564 37.715 263.238 26.3886 249.266 26.3886Z" fill="#4E4B4C"/>
<path opacity="0.82" d="M249.265 26.7692H51.1725C37.4109 26.7692 26.2549 37.9252 26.2549 51.6869C26.2549 65.4485 37.4109 76.6045 51.1725 76.6045H249.265C263.027 76.6045 274.183 65.4485 274.183 51.6869C274.183 37.9252 263.027 26.7692 249.265 26.7692Z" fill="#4A4747"/>
<path opacity="0.84" d="M249.265 27.1498H51.1719C37.6204 27.1498 26.6348 38.1354 26.6348 51.6869C26.6348 65.2383 37.6204 76.224 51.1719 76.224H249.265C262.816 76.224 273.802 65.2383 273.802 51.6869C273.802 38.1354 262.816 27.1498 249.265 27.1498Z" fill="#464243"/>
<path opacity="0.86" d="M249.265 27.5304H51.1722C37.8309 27.5304 27.0156 38.3457 27.0156 51.6869C27.0156 65.0282 37.8309 75.8435 51.1722 75.8435H249.265C262.606 75.8435 273.422 65.0282 273.422 51.6869C273.422 38.3457 262.606 27.5304 249.265 27.5304Z" fill="#413E3F"/>
<path opacity="0.88" d="M51.1725 27.9109H249.265C262.386 27.9109 273.041 38.566 273.041 51.687C273.041 64.8079 262.386 75.463 249.265 75.463H51.1725C38.0515 75.463 27.3965 64.8079 27.3965 51.687C27.3965 38.566 38.0515 27.9109 51.1725 27.9109Z" fill="#3D393A"/>
<path opacity="0.9" d="M249.265 28.2913H51.1718C38.2509 28.2913 27.7764 38.7658 27.7764 51.6868C27.7764 64.6078 38.2509 75.0823 51.1718 75.0823H249.265C262.186 75.0823 272.66 64.6078 272.66 51.6868C272.66 38.7658 262.186 28.2913 249.265 28.2913Z" fill="#393536"/>
<path opacity="0.92" d="M249.265 28.6719H51.1722C38.4614 28.6719 28.1572 38.9761 28.1572 51.6869C28.1572 64.3977 38.4614 74.7018 51.1722 74.7018H249.265C261.976 74.7018 272.28 64.3977 272.28 51.6869C272.28 38.9761 261.976 28.6719 249.265 28.6719Z" fill="#343131"/>
<path opacity="0.94" d="M249.265 29.0525H51.1725C38.6718 29.0525 28.5381 39.1863 28.5381 51.6869C28.5381 64.1875 38.6718 74.3213 51.1725 74.3213H249.265C261.766 74.3213 271.9 64.1875 271.9 51.6869C271.9 39.1863 261.766 29.0525 249.265 29.0525Z" fill="#302C2D"/>
<path opacity="0.96" d="M51.1728 29.4331H249.266C261.549 29.4331 271.519 39.4032 271.519 51.687C271.519 63.9707 261.549 73.9408 249.266 73.9408H51.1728C38.889 73.9408 28.9189 63.9707 28.9189 51.687C28.9189 39.4032 38.889 29.4331 51.1728 29.4331Z" fill="#2C2829"/>
<path opacity="0.98" d="M249.28 29.8134H51.1721C39.0918 29.8134 29.2988 39.6064 29.2988 51.6867C29.2988 63.767 39.0918 73.5601 51.1721 73.5601H249.28C261.36 73.5601 271.153 63.767 271.153 51.6867C271.153 39.6064 261.36 29.8134 249.28 29.8134Z" fill="#272324"/>
<path d="M51.1725 73.1796C39.3149 73.1796 29.6797 63.5292 29.6797 51.6868C29.6797 39.8445 39.3301 30.194 51.1725 30.194H249.265C261.123 30.194 270.758 39.8445 270.758 51.6868C270.758 63.5292 261.123 73.1796 249.265 73.1796H51.1725Z" fill="#231F20"/>
</g>
<path d="M41.687 68.0043C27.0439 68.0043 15.1406 56.0859 15.1406 41.458C15.1406 26.8301 27.0591 14.9117 41.687 14.9117H239.78C254.423 14.9117 266.326 26.8301 266.326 41.458C266.326 56.0859 254.408 68.0043 239.78 68.0043H41.687Z" fill="url(#paint0_linear_48_6860)"/>
<path opacity="0.1" d="M239.781 0.57312H41.6877C19.1076 0.57312 0.802734 18.878 0.802734 41.4581C0.802734 64.0383 19.1076 82.3431 41.6877 82.3431H239.781C262.361 82.3431 280.666 64.0383 280.666 41.4581C280.666 18.878 262.361 0.57312 239.781 0.57312Z" fill="white"/>
<defs>
<linearGradient id="paint0_linear_48_6860" x1="-13.004" y1="66.604" x2="-11.4818" y2="13.4961" gradientUnits="userSpaceOnUse">
<stop offset="0.1" stop-color="#BCA32A"/>
<stop offset="0.94" stop-color="#E9C716"/>
</linearGradient>
</defs>
</svg>
