<svg width="272" height="85" viewBox="0 0 272 85" fill="none" xmlns="http://www.w3.org/2000/svg">
<g style="mix-blend-mode:multiply" opacity="0.2">
<path opacity="0.02" d="M232.348 0.958069H40.2325C18.5375 0.958069 0.950195 19.4882 0.950195 42.3462C0.950195 65.2043 18.5375 83.7344 40.2325 83.7344H232.348C254.043 83.7344 271.631 65.2043 271.631 42.3462C271.631 19.4882 254.043 0.958069 232.348 0.958069Z" fill="#FBFBFB"/>
<path opacity="0.04" d="M232.347 1.34692H40.2316C18.7404 1.34692 1.31836 19.7029 1.31836 42.3462C1.31836 64.9895 18.7404 83.3455 40.2316 83.3455H232.347C253.839 83.3455 271.261 64.9895 271.261 42.3462C271.261 19.7029 253.839 1.34692 232.347 1.34692Z" fill="#F6F6F6"/>
<path opacity="0.06" d="M232.348 1.73553H40.2317C18.9443 1.73553 1.6875 19.9175 1.6875 42.346C1.6875 64.7746 18.9443 82.9565 40.2317 82.9565H232.348C253.635 82.9565 270.892 64.7746 270.892 42.346C270.892 19.9175 253.635 1.73553 232.348 1.73553Z" fill="#F2F2F2"/>
<path opacity="0.08" d="M232.348 2.12445H40.2318C19.1482 2.12445 2.05664 20.1323 2.05664 42.3461C2.05664 64.5599 19.1482 82.5677 40.2318 82.5677H232.348C253.431 82.5677 270.523 64.5599 270.523 42.3461C270.523 20.1323 253.431 2.12445 232.348 2.12445Z" fill="#EEEDEE"/>
<path opacity="0.1" d="M232.349 2.51337H40.2329C19.3531 2.51337 2.42676 20.3471 2.42676 42.3462C2.42676 64.3452 19.3531 82.1789 40.2329 82.1789H232.349C253.228 82.1789 270.155 64.3452 270.155 42.3462C270.155 20.3471 253.228 2.51337 232.349 2.51337Z" fill="#E9E9E9"/>
<path opacity="0.12" d="M232.348 2.90228H40.232C19.5561 2.90228 2.79492 20.5619 2.79492 42.3462C2.79492 64.1305 19.5561 81.7902 40.232 81.7902H232.348C253.024 81.7902 269.785 64.1305 269.785 42.3462C269.785 20.5619 253.024 2.90228 232.348 2.90228Z" fill="#E5E5E5"/>
<path opacity="0.14" d="M232.348 3.29089H40.2321C19.76 3.29089 3.16406 20.7765 3.16406 42.346C3.16406 63.9156 19.76 81.4011 40.2321 81.4011H232.348C252.82 81.4011 269.416 63.9156 269.416 42.346C269.416 20.7765 252.82 3.29089 232.348 3.29089Z" fill="#E1E0E0"/>
<path opacity="0.16" d="M232.364 3.67981H40.2331C19.9649 3.67981 3.53418 20.9913 3.53418 42.3461C3.53418 63.7009 19.9649 81.0123 40.2331 81.0123H232.364C252.632 81.0123 269.063 63.7009 269.063 42.3461C269.063 20.9913 252.632 3.67981 232.364 3.67981Z" fill="#DCDCDC"/>
<path opacity="0.18" d="M232.363 4.0686H40.2322C20.1678 4.0686 3.90234 21.206 3.90234 42.346C3.90234 63.4861 20.1678 80.6235 40.2322 80.6235H232.363C252.427 80.6235 268.693 63.4861 268.693 42.346C268.693 21.206 252.427 4.0686 232.363 4.0686Z" fill="#D8D7D8"/>
<path opacity="0.2" d="M232.362 4.45752H40.2313C20.3707 4.45752 4.27051 21.4208 4.27051 42.3461C4.27051 63.2714 20.3707 80.2347 40.2313 80.2347H232.362C252.223 80.2347 268.323 63.2714 268.323 42.3461C268.323 21.4208 252.223 4.45752 232.362 4.45752Z" fill="#D4D3D3"/>
<path opacity="0.22" d="M232.362 4.8465H40.2314C20.5746 4.8465 4.63965 21.6357 4.63965 42.3462C4.63965 63.0568 20.5746 79.846 40.2314 79.846H232.362C252.019 79.846 267.954 63.0568 267.954 42.3462C267.954 21.6357 252.019 4.8465 232.362 4.8465Z" fill="#D0CFCF"/>
<path opacity="0.24" d="M40.2315 5.23505H232.347C251.789 5.23505 267.57 21.8619 267.57 42.346C267.57 62.8301 251.789 79.4569 232.347 79.4569H40.2315C20.7896 79.4569 5.00879 62.8301 5.00879 42.346C5.00879 21.8619 20.7896 5.23505 40.2315 5.23505Z" fill="#CBCACB"/>
<path opacity="0.25" d="M232.363 5.62402H40.2326C20.9834 5.62402 5.37891 22.0651 5.37891 42.3461V42.3616C5.37891 62.6427 20.9834 79.0837 40.2326 79.0837H232.363C251.612 79.0837 267.217 62.6427 267.217 42.3616V42.3461C267.217 22.0651 251.612 5.62402 232.363 5.62402Z" fill="#C7C6C6"/>
<path opacity="0.27" d="M232.363 6.01288H40.2326C21.1873 6.01288 5.74805 22.2798 5.74805 42.3461V42.3617C5.74805 62.4279 21.1873 78.6949 40.2326 78.6949H232.363C251.409 78.6949 266.848 62.4279 266.848 42.3617V42.3461C266.848 22.2798 251.409 6.01288 232.363 6.01288Z" fill="#C3C2C2"/>
<path opacity="0.29" d="M232.362 6.40179H40.2318C21.3903 6.40179 6.11621 22.4946 6.11621 42.3462V42.3617C6.11621 62.2133 21.3903 78.3061 40.2318 78.3061H232.362C251.204 78.3061 266.478 62.2133 266.478 42.3617V42.3462C266.478 22.4946 251.204 6.40179 232.362 6.40179Z" fill="#BEBDBD"/>
<path opacity="0.31" d="M40.2318 6.79071H232.348C250.978 6.79071 266.094 22.7176 266.094 42.3463C266.094 61.9749 250.978 77.9018 232.348 77.9018H40.2318C21.6019 77.9018 6.48535 61.9749 6.48535 42.3463C6.48535 22.7176 21.6019 6.79071 40.2318 6.79071Z" fill="#BAB9B9"/>
<path opacity="0.33" d="M232.362 7.17932H40.2319C21.7981 7.17932 6.85449 22.924 6.85449 42.346V42.3616C6.85449 61.7836 21.7981 77.5283 40.2319 77.5283H232.362C250.796 77.5283 265.74 61.7836 265.74 42.3616V42.346C265.74 22.924 250.796 7.17932 232.362 7.17932Z" fill="#B6B4B5"/>
<path opacity="0.35" d="M232.363 7.56824H40.232C22.002 7.56824 7.22363 23.1388 7.22363 42.3461V42.3617C7.22363 61.5689 22.002 77.1395 40.232 77.1395H232.363C250.593 77.1395 265.371 61.5689 265.371 42.3617V42.3461C265.371 23.1388 250.593 7.56824 232.363 7.56824Z" fill="#B1B0B0"/>
<path opacity="0.37" d="M232.363 7.95703H40.2321C22.2059 7.95703 7.59277 23.3535 7.59277 42.3461V42.3616C7.59277 61.3541 22.2059 76.7506 40.2321 76.7506H232.363C250.389 76.7506 265.002 61.3541 265.002 42.3616V42.3461C265.002 23.3535 250.389 7.95703 232.363 7.95703Z" fill="#ADACAC"/>
<path opacity="0.39" d="M40.2312 8.34607H232.347C250.165 8.34607 264.617 23.5886 264.617 42.3463C264.617 61.1195 250.15 76.3465 232.347 76.3465H40.2312C22.4132 76.3465 7.96094 61.1039 7.96094 42.3463C7.96094 23.5731 22.4279 8.34607 40.2312 8.34607Z" fill="#A9A7A8"/>
<path opacity="0.41" d="M232.363 8.73468H40.2323C22.6137 8.73468 8.33105 23.783 8.33105 42.346V42.3616C8.33105 60.9246 22.6137 75.9729 40.2323 75.9729H232.363C249.981 75.9729 264.264 60.9246 264.264 42.3616V42.346C264.264 23.783 249.981 8.73468 232.363 8.73468Z" fill="#A4A3A3"/>
<path opacity="0.43" d="M232.363 9.12347H40.2323C22.8176 9.12347 8.7002 23.9977 8.7002 42.346V42.3615C8.7002 60.7098 22.8176 75.584 40.2323 75.584H232.363C249.778 75.584 263.895 60.7098 263.895 42.3615V42.346C263.895 23.9977 249.778 9.12347 232.363 9.12347Z" fill="#A09E9F"/>
<path opacity="0.45" d="M232.348 9.51245H40.2472C23.0281 9.51245 9.06934 24.2161 9.06934 42.3539C9.06934 60.4917 23.0281 75.1953 40.2472 75.1953H232.348C249.567 75.1953 263.526 60.4917 263.526 42.3539C263.526 24.2161 249.567 9.51245 232.348 9.51245Z" fill="#9C9A9A"/>
<path opacity="0.47" d="M232.348 9.90131H40.2473C23.232 9.90131 9.43848 24.4308 9.43848 42.3539C9.43848 60.277 23.232 74.8065 40.2473 74.8065H232.348C249.364 74.8065 263.157 60.277 263.157 42.3539C263.157 24.4308 249.364 9.90131 232.348 9.90131Z" fill="#979696"/>
<path opacity="0.49" d="M232.347 10.2902H40.2464C23.435 10.2902 9.80664 24.6456 9.80664 42.354C9.80664 60.0623 23.435 74.4177 40.2464 74.4177H232.347C249.159 74.4177 262.787 60.0623 262.787 42.354C262.787 24.6456 249.159 10.2902 232.347 10.2902Z" fill="#939192"/>
<path opacity="0.51" d="M232.348 10.6789H40.2465C23.6389 10.6789 10.1758 24.8602 10.1758 42.3538C10.1758 59.8474 23.6389 74.0287 40.2465 74.0287H232.348C248.955 74.0287 262.418 59.8474 262.418 42.3538C262.418 24.8602 248.955 10.6789 232.348 10.6789Z" fill="#8F8D8D"/>
<path opacity="0.53" d="M232.348 11.0677H40.2466C23.8428 11.0677 10.5449 25.075 10.5449 42.3538C10.5449 59.6326 23.8428 73.6399 40.2466 73.6399H232.348C248.751 73.6399 262.049 59.6326 262.049 42.3538C262.049 25.075 248.751 11.0677 232.348 11.0677Z" fill="#8B8889"/>
<path opacity="0.55" d="M232.362 11.4567H40.2466C24.0467 11.4567 10.9141 25.2898 10.9141 42.3539C10.9141 59.418 24.0467 73.2511 40.2466 73.2511H232.362C248.562 73.2511 261.695 59.418 261.695 42.3539C261.695 25.2898 248.562 11.4567 232.362 11.4567Z" fill="#868485"/>
<path opacity="0.57" d="M232.363 11.8455H40.2467C24.2506 11.8455 11.2832 25.5046 11.2832 42.3539C11.2832 59.2032 24.2506 72.8623 40.2467 72.8623H232.363C248.359 72.8623 261.326 59.2032 261.326 42.3539C261.326 25.5046 248.359 11.8455 232.363 11.8455Z" fill="#828080"/>
<path opacity="0.59" d="M232.363 12.2342H40.2468C24.4545 12.2342 11.6523 25.7192 11.6523 42.3537C11.6523 58.9883 24.4545 72.4733 40.2468 72.4733H232.363C248.155 72.4733 260.957 58.9883 260.957 42.3537C260.957 25.7192 248.155 12.2342 232.363 12.2342Z" fill="#7E7B7C"/>
<path opacity="0.61" d="M232.363 12.6231H40.2469C24.6584 12.6231 12.0215 25.934 12.0215 42.3538C12.0215 58.7736 24.6584 72.0846 40.2469 72.0846H232.363C247.951 72.0846 260.588 58.7736 260.588 42.3538C260.588 25.934 247.951 12.6231 232.363 12.6231Z" fill="#797777"/>
<path opacity="0.63" d="M232.363 13.012H40.247C24.8623 13.012 12.3906 26.1488 12.3906 42.3539C12.3906 58.559 24.8623 71.6958 40.247 71.6958H232.363C247.747 71.6958 260.219 58.559 260.219 42.3539C260.219 26.1488 247.747 13.012 232.363 13.012Z" fill="#757273"/>
<path opacity="0.65" d="M40.2324 13.4009H232.348C247.524 13.4009 259.836 26.3726 259.836 42.3618C259.836 58.3509 247.524 71.3226 232.348 71.3226H40.2324C25.0568 71.3226 12.7451 58.3509 12.7451 42.3618C12.7451 26.3726 25.0568 13.4009 40.2324 13.4009Z" fill="#716E6F"/>
<path opacity="0.67" d="M232.348 13.7742H40.2325C25.2555 13.7742 13.1143 26.5663 13.1143 42.3462C13.1143 58.126 25.2555 70.9181 40.2325 70.9181H232.348C247.325 70.9181 259.467 58.126 259.467 42.3462C259.467 26.5663 247.325 13.7742 232.348 13.7742Z" fill="#6C6A6A"/>
<path opacity="0.69" d="M232.348 14.163H40.2326C25.4594 14.163 13.4834 26.781 13.4834 42.3461C13.4834 57.9112 25.4594 70.5293 40.2326 70.5293H232.348C247.122 70.5293 259.098 57.9112 259.098 42.3461C259.098 26.781 247.122 14.163 232.348 14.163Z" fill="#686566"/>
<path opacity="0.71" d="M232.349 14.5517H40.2327C25.6633 14.5517 13.8525 26.9956 13.8525 42.346C13.8525 57.6964 25.6633 70.1403 40.2327 70.1403H232.349C246.918 70.1403 258.729 57.6964 258.729 42.346C258.729 26.9956 246.918 14.5517 232.349 14.5517Z" fill="#646162"/>
<path opacity="0.73" d="M40.2328 14.9406H232.349C246.697 14.9406 258.36 27.2124 258.36 42.3461C258.36 57.4642 246.712 69.7515 232.349 69.7515H40.2328C25.8838 69.7515 14.2217 57.4797 14.2217 42.3461C14.2217 27.228 25.8691 14.9406 40.2328 14.9406Z" fill="#5F5C5D"/>
<path opacity="0.75" d="M232.349 15.3295H40.2328C26.0711 15.3295 14.5908 27.4252 14.5908 42.3461C14.5908 57.267 26.0711 69.3627 40.2328 69.3627H232.349C246.51 69.3627 257.991 57.267 257.991 42.3461C257.991 27.4252 246.51 15.3295 232.349 15.3295Z" fill="#5B5859"/>
<path opacity="0.76" d="M232.349 15.7184H40.2329C26.275 15.7184 14.96 27.6401 14.96 42.3462C14.96 57.0523 26.275 68.974 40.2329 68.974H232.349C246.307 68.974 257.622 57.0523 257.622 42.3462C257.622 27.6401 246.307 15.7184 232.349 15.7184Z" fill="#575454"/>
<path opacity="0.78" d="M232.349 16.1072H40.233C26.479 16.1072 15.3291 27.8548 15.3291 42.3462C15.3291 56.8376 26.479 68.5851 40.233 68.5851H232.349C246.103 68.5851 257.253 56.8376 257.253 42.3462C257.253 27.8548 246.103 16.1072 232.349 16.1072Z" fill="#524F50"/>
<path opacity="0.8" d="M40.2331 16.4959H232.349C245.886 16.4959 256.884 28.0834 256.884 42.346C256.884 56.6087 245.886 68.1961 232.349 68.1961H40.2331C26.6961 68.1961 15.6982 56.6087 15.6982 42.346C15.6982 28.0834 26.6961 16.4959 40.2331 16.4959Z" fill="#4E4B4C"/>
<path opacity="0.82" d="M232.349 16.8848H40.2332C26.8868 16.8848 16.0674 28.2842 16.0674 42.3461C16.0674 56.408 26.8868 67.8074 40.2332 67.8074H232.349C245.695 67.8074 256.515 56.408 256.515 42.3461C256.515 28.2842 245.695 16.8848 232.349 16.8848Z" fill="#4A4747"/>
<path opacity="0.84" d="M232.349 17.2737H40.2333C27.0907 17.2737 16.4365 28.499 16.4365 42.3461C16.4365 56.1932 27.0907 67.4185 40.2333 67.4185H232.349C245.492 67.4185 256.146 56.1932 256.146 42.3461C256.146 28.499 245.492 17.2737 232.349 17.2737Z" fill="#464243"/>
<path opacity="0.86" d="M232.349 17.6626H40.2333C27.2946 17.6626 16.8057 28.7138 16.8057 42.3462C16.8057 55.9786 27.2946 67.0298 40.2333 67.0298H232.349C245.288 67.0298 255.777 55.9786 255.777 42.3462C255.777 28.7138 245.288 17.6626 232.349 17.6626Z" fill="#413E3F"/>
<path opacity="0.88" d="M40.2334 18.0515H232.349C245.074 18.0515 255.408 28.9391 255.408 42.3463C255.408 55.7535 245.074 66.641 232.349 66.641H40.2334C27.5084 66.641 17.1748 55.7535 17.1748 42.3463C17.1748 28.9391 27.5084 18.0515 40.2334 18.0515Z" fill="#3D393A"/>
<path opacity="0.9" d="M232.348 18.4401H40.2325C27.7014 18.4401 17.543 29.1432 17.543 42.346C17.543 55.5489 27.7014 66.2519 40.2325 66.2519H232.348C244.879 66.2519 255.038 55.5489 255.038 42.346C255.038 29.1432 244.879 18.4401 232.348 18.4401Z" fill="#393536"/>
<path opacity="0.92" d="M232.348 18.829H40.2326C27.9053 18.829 17.9121 29.358 17.9121 42.3461C17.9121 55.3342 27.9053 65.8632 40.2326 65.8632H232.348C244.676 65.8632 254.669 55.3342 254.669 42.3461C254.669 29.358 244.676 18.829 232.348 18.829Z" fill="#343131"/>
<path opacity="0.94" d="M232.349 19.218H40.2327C28.1092 19.218 18.2812 29.5728 18.2812 42.3462C18.2812 55.1195 28.1092 65.4744 40.2327 65.4744H232.349C244.472 65.4744 254.3 55.1195 254.3 42.3462C254.3 29.5728 244.472 19.218 232.349 19.218Z" fill="#302C2D"/>
<path opacity="0.96" d="M40.2338 19.6068H232.35C244.263 19.6068 253.932 29.7944 253.932 42.3462C253.932 54.898 244.263 65.0856 232.35 65.0856H40.2338C28.3206 65.0856 18.6514 54.898 18.6514 42.3462C18.6514 29.7944 28.3206 19.6068 40.2338 19.6068Z" fill="#2C2829"/>
<path opacity="0.98" d="M232.363 19.9955H40.2329C28.5171 19.9955 19.0195 30.0022 19.0195 42.346C19.0195 54.6899 28.5171 64.6966 40.2329 64.6966H232.363C244.079 64.6966 253.577 54.6899 253.577 42.346C253.577 30.0022 244.079 19.9955 232.363 19.9955Z" fill="#272324"/>
<path d="M40.233 64.3078C28.7332 64.3078 19.3887 54.4468 19.3887 42.3461C19.3887 30.2454 28.7479 20.3844 40.233 20.3844H232.349C243.849 20.3844 253.193 30.2454 253.193 42.3461C253.193 54.4468 243.849 64.3078 232.349 64.3078H40.233Z" fill="#231F20"/>
</g>
<path d="M31.0354 59.0196C16.8341 59.0196 5.29004 46.8411 5.29004 31.8941C5.29004 16.9471 16.8489 4.76862 31.0354 4.76862H223.151C237.353 4.76862 248.897 16.9471 248.897 31.8941C248.897 46.8411 237.338 59.0196 223.151 59.0196H31.0354Z" fill="url(#paint0_linear_48_12250)"/>
<defs>
<linearGradient id="paint0_linear_48_12250" x1="-22.0053" y1="57.5887" x2="-20.3668" y2="3.32703" gradientUnits="userSpaceOnUse">
<stop offset="0.1" stop-color="#13934C"/>
<stop offset="0.94" stop-color="#00D967"/>
</linearGradient>
</defs>
</svg>
